<svg width="25" height="25" viewBox="0 0 25 25" fill="none" xmlns="http://www.w3.org/2000/svg">
<path d="M8.99498 14.8311L11.7747 8.42871H12.7073V10.24L10.7346 14.8311H12.2052V14.0062C12.2052 13.8053 12.5399 13.791 12.7073 13.8089V16.3376C12.2482 16.3376 12.1813 16.1822 12.2052 16.1045V15.3871H10.4656L6.16141 24.9997H6L7.09397 21.6819C7.09397 21.6819 6.12554 21.3053 6.44835 20.4983C6.77116 19.6913 8.70803 15.3871 8.70803 15.3871H6.44835V14.8311H8.99498Z" fill="#333333"/>
<path d="M16.2403 14.8311L13.4605 8.42871H12.528V10.24L14.5007 14.8311H13.0301V14.0062C13.0301 13.8053 12.6954 13.791 12.528 13.8089V16.3376C12.9871 16.3376 13.054 16.1822 13.0301 16.1045V15.3871H14.7697L19.0739 24.9997H19.2353L18.1413 21.6819C18.1413 21.6819 19.1098 21.3053 18.7869 20.4983C18.4641 19.6913 16.5273 15.3871 16.5273 15.3871H18.7869V14.8311H16.2403Z" fill="#333333"/>
<path fill-rule="evenodd" clip-rule="evenodd" d="M12.6356 7.49641C13.6855 7.49641 14.5366 6.6453 14.5366 5.59541C14.5366 4.54551 13.6855 3.6944 12.6356 3.6944C11.5857 3.6944 10.7346 4.54551 10.7346 5.59541C10.7346 6.6453 11.5857 7.49641 12.6356 7.49641ZM12.6356 8.53658C14.26 8.53658 15.5768 7.21978 15.5768 5.59541C15.5768 3.97104 14.26 2.65423 12.6356 2.65423C11.0113 2.65423 9.69446 3.97104 9.69446 5.59541C9.69446 7.21978 11.0113 8.53658 12.6356 8.53658Z" fill="#333333"/>
<path d="M12.0976 0H13.1737V2.83357H12.0976V0Z" fill="#333333"/>
</svg>
