<svg width="225" height="72" viewBox="0 0 225 72" fill="none" xmlns="http://www.w3.org/2000/svg">
<path d="M70.5385 36.2903C69.4378 36.9223 68.1026 37.4217 66.533 37.7886C64.9634 38.1555 63.3326 38.339 61.6407 38.339C59.3576 38.339 57.4109 38.0638 55.8006 37.5134C54.2106 36.963 53.0079 36.1986 52.1925 35.2202C51.3975 34.2417 51 33.1104 51 31.8261C51 30.705 51.3058 29.7163 51.9173 28.8602C52.5288 28.004 53.3748 27.3415 54.4552 26.8727C53.6194 26.4446 52.9773 25.8535 52.5288 25.0992C52.1008 24.3246 51.8867 23.4787 51.8867 22.5614C51.8867 21.3791 52.2536 20.2987 52.9875 19.3202C53.7417 18.3418 54.8832 17.557 56.4121 16.9658C57.9409 16.3747 59.8265 16.0791 62.0688 16.0791C63.4753 16.0791 64.8615 16.2116 66.2272 16.4766C67.593 16.7416 68.7957 17.0983 69.8353 17.5468L68.1841 22.0721C66.2884 21.2364 64.3315 20.8185 62.3134 20.8185C60.8661 20.8185 59.7857 21.0122 59.0723 21.3995C58.3588 21.7664 58.0021 22.2862 58.0021 22.9589C58.0021 24.1819 58.8888 24.7935 60.6623 24.7935H66.7165V29.4106H60.2648C59.2251 29.4106 58.4403 29.5838 57.9103 29.9304C57.3804 30.2565 57.1154 30.7458 57.1154 31.3981C57.1154 32.0911 57.5027 32.6313 58.2773 33.0186C59.0519 33.4059 60.2546 33.5996 61.8853 33.5996C63.0472 33.5996 64.2397 33.4467 65.4628 33.1409C66.7063 32.8148 67.7866 32.3765 68.7039 31.8261L70.5385 36.2903Z" fill="#333333"/>
<path d="M86.1224 29.2271C88.0182 29.859 88.9661 31.1636 88.9661 33.1409C88.9661 34.629 88.3851 35.8011 87.2232 36.6573C86.0613 37.493 84.349 37.9109 82.0863 37.9109H72.7604V21.3383H81.6582C83.819 21.3383 85.4905 21.7154 86.6728 22.4696C87.8755 23.2239 88.4768 24.2839 88.4768 25.6496C88.4768 26.4446 88.273 27.1479 87.8653 27.7594C87.4576 28.371 86.8767 28.8602 86.1224 29.2271ZM77.9584 28.004H81.1384C82.4838 28.004 83.1565 27.5046 83.1565 26.5058C83.1565 25.5477 82.4838 25.0687 81.1384 25.0687H77.9584V28.004ZM81.5665 34.15C82.973 34.15 83.6763 33.6404 83.6763 32.6211C83.6763 31.6019 82.9934 31.0923 81.6276 31.0923H77.9584V34.15H81.5665Z" fill="#333333"/>
<path d="M99.6672 32.0096H97.7103V37.9109H91.9007V21.3383H97.7103V27.4537H99.7895L103.856 21.3383H110.002L104.437 29.2883L110.369 37.9109H103.52L99.6672 32.0096Z" fill="#333333"/>
<path d="M129.174 21.3383V37.9109H123.364V25.9554H119.175L119.053 28.4933C118.971 30.654 118.757 32.4377 118.411 33.8442C118.064 35.2507 117.493 36.3515 116.698 37.1465C115.903 37.9211 114.813 38.3084 113.427 38.3084C112.713 38.3084 111.775 38.1759 110.613 37.9109L110.858 33.1715C111.225 33.2123 111.47 33.2327 111.592 33.2327C112.224 33.2327 112.703 33.0288 113.029 32.6211C113.355 32.2134 113.579 31.6732 113.702 31.0006C113.824 30.3075 113.906 29.3902 113.946 28.2487L114.191 21.3383H129.174Z" fill="#333333"/>
<path d="M150.14 21.3383V37.9109H144.605V36.168C143.994 36.8203 143.26 37.3198 142.404 37.6663C141.568 38.0128 140.671 38.1861 139.713 38.1861C137.552 38.1861 135.83 37.5542 134.545 36.2903C133.282 35.0265 132.65 33.1307 132.65 30.6031V21.3383H138.459V29.6552C138.459 32.0402 139.387 33.2327 141.242 33.2327C142.159 33.2327 142.903 32.9167 143.474 32.2848C144.045 31.6325 144.33 30.6438 144.33 29.3188V21.3383H150.14Z" fill="#333333"/>
<path d="M171.682 21.3383V34.8838C171.682 37.9619 170.847 40.2653 169.175 41.7942C167.504 43.3434 165.098 44.118 161.959 44.118C160.328 44.118 158.799 43.9345 157.372 43.5676C155.946 43.2007 154.733 42.6605 153.734 41.947L155.844 37.8803C156.516 38.4307 157.362 38.8588 158.382 39.1646C159.421 39.4907 160.44 39.6538 161.439 39.6538C162.968 39.6538 164.089 39.3174 164.803 38.6448C165.516 37.9721 165.873 36.9732 165.873 35.6482V35.0978C164.752 36.4025 163.111 37.0548 160.95 37.0548C159.482 37.0548 158.127 36.7286 156.883 36.0763C155.64 35.4036 154.651 34.4659 153.917 33.2632C153.183 32.0402 152.817 30.6336 152.817 29.0436C152.817 27.474 153.183 26.0879 153.917 24.8852C154.651 23.6621 155.64 22.7245 156.883 22.0721C158.127 21.3995 159.482 21.0631 160.95 21.0631C163.315 21.0631 165.047 21.8275 166.148 23.3564V21.3383H171.682ZM162.326 32.4377C163.366 32.4377 164.222 32.1217 164.894 31.4898C165.587 30.8579 165.934 30.0425 165.934 29.0436C165.934 28.0448 165.598 27.2396 164.925 26.6281C164.252 25.9962 163.386 25.6802 162.326 25.6802C161.266 25.6802 160.389 25.9962 159.696 26.6281C159.024 27.2396 158.687 28.0448 158.687 29.0436C158.687 30.0425 159.034 30.8579 159.727 31.4898C160.42 32.1217 161.286 32.4377 162.326 32.4377Z" fill="#333333"/>
<path d="M60.4259 46.0096V55.9884H57.6319V48.2477H53.8399V55.9884H51.0601V46.0096H60.4259Z" fill="#333333"/>
<path d="M66.5363 48.1337C67.3822 48.1337 68.1187 48.2952 68.7459 48.6184C69.3732 48.9415 69.8531 49.4071 70.1857 50.0154C70.5278 50.6141 70.6989 51.3174 70.6989 52.1252C70.6989 52.9235 70.5421 53.6267 70.2285 54.235C69.9149 54.8337 69.4729 55.2994 68.9027 55.632C68.3325 55.9551 67.672 56.1167 66.9212 56.1167C66.0374 56.1167 65.3436 55.8458 64.84 55.3041V58.7539H62.1314V52.1537C62.1314 51.3554 62.312 50.6521 62.6731 50.0439C63.0343 49.4357 63.5475 48.9652 64.2127 48.6326C64.878 48.3 65.6525 48.1337 66.5363 48.1337ZM66.408 53.9641C66.8927 53.9641 67.2824 53.7978 67.577 53.4652C67.8811 53.1231 68.0332 52.6764 68.0332 52.1252C68.0332 51.574 67.8811 51.132 67.577 50.7994C67.2824 50.4573 66.8927 50.2862 66.408 50.2862C65.9234 50.2862 65.5337 50.4573 65.2391 50.7994C64.9445 51.132 64.7972 51.574 64.7972 52.1252C64.7972 52.6859 64.9397 53.1326 65.2248 53.4652C65.5195 53.7978 65.9139 53.9641 66.408 53.9641Z" fill="#333333"/>
<path d="M75.8141 56.1167C74.9873 56.1167 74.2413 55.9456 73.576 55.6035C72.9108 55.2614 72.3881 54.7862 72.008 54.178C71.6373 53.5697 71.452 52.8807 71.452 52.1109C71.452 51.3506 71.6373 50.6664 72.008 50.0581C72.3881 49.4499 72.906 48.9795 73.5618 48.6469C74.227 48.3047 74.9778 48.1337 75.8141 48.1337C76.6505 48.1337 77.4012 48.3047 78.0665 48.6469C78.7317 48.9795 79.2497 49.4499 79.6203 50.0581C79.991 50.6569 80.1763 51.3411 80.1763 52.1109C80.1763 52.8807 79.991 53.5697 79.6203 54.178C79.2497 54.7862 78.7317 55.2614 78.0665 55.6035C77.4012 55.9456 76.6505 56.1167 75.8141 56.1167ZM75.8141 53.9641C76.2893 53.9641 76.679 53.8026 76.9831 53.4794C77.2872 53.1468 77.4393 52.6906 77.4393 52.1109C77.4393 51.5407 77.2872 51.094 76.9831 50.7709C76.679 50.4478 76.2893 50.2862 75.8141 50.2862C75.339 50.2862 74.9493 50.4478 74.6452 50.7709C74.3411 51.094 74.189 51.5407 74.189 52.1109C74.189 52.6906 74.3411 53.1468 74.6452 53.4794C74.9493 53.8026 75.339 53.9641 75.8141 53.9641Z" fill="#333333"/>
<path d="M85.5379 54.0497C85.9085 54.0497 86.2269 53.9974 86.493 53.8928C86.7686 53.7883 87.0442 53.6172 87.3198 53.3797L88.7311 54.8622C87.9993 55.6985 86.9064 56.1167 85.4523 56.1167C84.5495 56.1167 83.7559 55.9456 83.0717 55.6035C82.3874 55.2614 81.8552 54.7862 81.4751 54.178C81.1044 53.5697 80.9191 52.8807 80.9191 52.1109C80.9191 51.3506 81.1044 50.6711 81.4751 50.0724C81.8457 49.4642 82.3542 48.989 83.0004 48.6469C83.6562 48.3047 84.3879 48.1337 85.1957 48.1337C85.9465 48.1337 86.6308 48.2905 87.2485 48.6041C87.8758 48.9082 88.3747 49.3596 88.7453 49.9584C89.116 50.5476 89.3013 51.2508 89.3013 52.0682L83.7845 53.1231C84.0791 53.7408 84.6635 54.0497 85.5379 54.0497ZM85.21 50.0581C84.7443 50.0581 84.3642 50.2054 84.0696 50.5001C83.775 50.7852 83.6086 51.1986 83.5706 51.7403L86.7068 51.1273C86.6118 50.8042 86.4312 50.5476 86.1651 50.3575C85.899 50.1579 85.5806 50.0581 85.21 50.0581Z" fill="#333333"/>
<path d="M94.2137 53.2371H93.3014V55.9884H90.5928V48.262H93.3014V51.113H94.2707L96.1667 48.262H99.032L96.4376 51.9684L99.2031 55.9884H96.0099L94.2137 53.2371Z" fill="#333333"/>
<path d="M110.165 48.1337C111.116 48.1337 111.871 48.4188 112.432 48.989C113.002 49.5592 113.287 50.4193 113.287 51.5692V55.9884H110.579V52.0111C110.579 51.4694 110.474 51.0703 110.265 50.8137C110.066 50.5571 109.78 50.4288 109.41 50.4288C109.001 50.4288 108.673 50.5713 108.426 50.8564C108.179 51.1416 108.056 51.574 108.056 52.1537V55.9884H105.347V52.0111C105.347 50.9562 104.957 50.4288 104.178 50.4288C103.76 50.4288 103.427 50.5713 103.18 50.8564C102.933 51.1416 102.81 51.574 102.81 52.1537V55.9884H100.101V48.262H102.681V49.0745C102.966 48.7609 103.304 48.5281 103.693 48.376C104.093 48.2145 104.525 48.1337 104.991 48.1337C105.532 48.1337 106.017 48.2335 106.445 48.433C106.872 48.6326 107.219 48.9367 107.485 49.3454C107.789 48.9557 108.174 48.6564 108.64 48.4473C109.106 48.2382 109.614 48.1337 110.165 48.1337Z" fill="#333333"/>
<path d="M114.927 48.262H117.621V51.1273H120.401V48.262H123.11V55.9884H120.401V53.2799H117.621V55.9884H114.927V48.262Z" fill="#333333"/>
<path d="M128.615 56.2165C126.058 56.2165 124.78 55.1188 124.78 52.9235V48.262H127.474V50.7139C127.674 50.5808 127.94 50.4715 128.272 50.386C128.615 50.3005 129.004 50.2577 129.441 50.2577C130.392 50.2577 131.138 50.5001 131.679 50.9847C132.221 51.4599 132.492 52.1679 132.492 53.1088C132.492 54.1257 132.14 54.9002 131.437 55.4324C130.743 55.9551 129.802 56.2165 128.615 56.2165ZM133.133 48.262H135.842V55.9884H133.133V48.262ZM128.615 54.3633C128.985 54.3633 129.266 54.254 129.456 54.0354C129.646 53.8168 129.741 53.527 129.741 53.1658C129.741 52.8142 129.646 52.5386 129.456 52.339C129.266 52.1394 128.99 52.0396 128.629 52.0396C128.372 52.0396 128.144 52.0872 127.945 52.1822C127.745 52.2772 127.588 52.4055 127.474 52.5671V53.1658C127.474 53.5365 127.569 53.8311 127.759 54.0497C127.949 54.2587 128.234 54.3633 128.615 54.3633Z" fill="#333333"/>
<path d="M141.752 54.0497C142.123 54.0497 142.441 53.9974 142.707 53.8928C142.983 53.7883 143.258 53.6172 143.534 53.3797L144.945 54.8622C144.213 55.6985 143.12 56.1167 141.666 56.1167C140.764 56.1167 139.97 55.9456 139.286 55.6035C138.602 55.2614 138.069 54.7862 137.689 54.178C137.319 53.5697 137.133 52.8807 137.133 52.1109C137.133 51.3506 137.319 50.6711 137.689 50.0724C138.06 49.4642 138.568 48.989 139.215 48.6469C139.87 48.3047 140.602 48.1337 141.41 48.1337C142.161 48.1337 142.845 48.2905 143.463 48.6041C144.09 48.9082 144.589 49.3596 144.959 49.9584C145.33 50.5476 145.515 51.2508 145.515 52.0682L139.999 53.1231C140.293 53.7408 140.878 54.0497 141.752 54.0497ZM141.424 50.0581C140.958 50.0581 140.578 50.2054 140.284 50.5001C139.989 50.7852 139.823 51.1986 139.785 51.7403L142.921 51.1273C142.826 50.8042 142.645 50.5476 142.379 50.3575C142.113 50.1579 141.795 50.0581 141.424 50.0581Z" fill="#333333"/>
<path d="M154.833 56.1167C153.978 56.1167 153.213 55.9456 152.538 55.6035C151.863 55.2614 151.336 54.7862 150.955 54.178C150.585 53.5697 150.4 52.8807 150.4 52.1109C150.4 51.3411 150.585 50.6569 150.955 50.0581C151.336 49.4499 151.863 48.9795 152.538 48.6469C153.213 48.3047 153.978 48.1337 154.833 48.1337C155.707 48.1337 156.463 48.3237 157.1 48.7039C157.736 49.0745 158.188 49.5925 158.454 50.2577L156.358 51.3269C156.007 50.6331 155.493 50.2862 154.819 50.2862C154.334 50.2862 153.93 50.4478 153.607 50.7709C153.293 51.094 153.137 51.5407 153.137 52.1109C153.137 52.6906 153.293 53.1468 153.607 53.4794C153.93 53.8026 154.334 53.9641 154.819 53.9641C155.493 53.9641 156.007 53.6172 156.358 52.9235L158.454 53.9926C158.188 54.6579 157.736 55.1806 157.1 55.5607C156.463 55.9314 155.707 56.1167 154.833 56.1167Z" fill="#333333"/>
<path d="M167.541 48.262V55.9884H164.961V55.1758C164.676 55.4799 164.334 55.7128 163.935 55.8743C163.545 56.0359 163.127 56.1167 162.68 56.1167C161.673 56.1167 160.87 55.8221 160.271 55.2328C159.682 54.6436 159.387 53.7598 159.387 52.5813V48.262H162.096V52.1394C162.096 53.2514 162.528 53.8073 163.393 53.8073C163.821 53.8073 164.167 53.66 164.433 53.3654C164.7 53.0613 164.833 52.6004 164.833 51.9826V48.262H167.541Z" fill="#333333"/>
<path d="M173.237 56.1167C172.382 56.1167 171.616 55.9456 170.942 55.6035C170.267 55.2614 169.74 54.7862 169.359 54.178C168.989 53.5697 168.803 52.8807 168.803 52.1109C168.803 51.3411 168.989 50.6569 169.359 50.0581C169.74 49.4499 170.267 48.9795 170.942 48.6469C171.616 48.3047 172.382 48.1337 173.237 48.1337C174.111 48.1337 174.867 48.3237 175.503 48.7039C176.14 49.0745 176.592 49.5925 176.858 50.2577L174.762 51.3269C174.411 50.6331 173.897 50.2862 173.223 50.2862C172.738 50.2862 172.334 50.4478 172.011 50.7709C171.697 51.094 171.54 51.5407 171.54 52.1109C171.54 52.6906 171.697 53.1468 172.011 53.4794C172.334 53.8026 172.738 53.9641 173.223 53.9641C173.897 53.9641 174.411 53.6172 174.762 52.9235L176.858 53.9926C176.592 54.6579 176.14 55.1806 175.503 55.5607C174.867 55.9314 174.111 56.1167 173.237 56.1167Z" fill="#333333"/>
<path d="M188.055 48.1337C189.005 48.1337 189.761 48.4188 190.321 48.989C190.892 49.5592 191.177 50.4193 191.177 51.5692V55.9884H188.468V52.0111C188.468 51.4694 188.364 51.0703 188.155 50.8137C187.955 50.5571 187.67 50.4288 187.299 50.4288C186.891 50.4288 186.563 50.5713 186.316 50.8564C186.069 51.1416 185.945 51.574 185.945 52.1537V55.9884H183.237V52.0111C183.237 50.9562 182.847 50.4288 182.068 50.4288C181.649 50.4288 181.317 50.5713 181.07 50.8564C180.823 51.1416 180.699 51.574 180.699 52.1537V55.9884H177.991V48.262H180.571V49.0745C180.856 48.7609 181.193 48.5281 181.583 48.376C181.982 48.2145 182.414 48.1337 182.88 48.1337C183.422 48.1337 183.907 48.2335 184.334 48.433C184.762 48.6326 185.109 48.9367 185.375 49.3454C185.679 48.9557 186.064 48.6564 186.53 48.4473C186.995 48.2382 187.504 48.1337 188.055 48.1337Z" fill="#333333"/>
<path d="M196.908 54.0497C197.279 54.0497 197.597 53.9974 197.863 53.8928C198.139 53.7883 198.414 53.6172 198.69 53.3797L200.101 54.8622C199.369 55.6985 198.277 56.1167 196.822 56.1167C195.92 56.1167 195.126 55.9456 194.442 55.6035C193.758 55.2614 193.225 54.7862 192.845 54.178C192.475 53.5697 192.289 52.8807 192.289 52.1109C192.289 51.3506 192.475 50.6711 192.845 50.0724C193.216 49.4642 193.724 48.989 194.371 48.6469C195.026 48.3047 195.758 48.1337 196.566 48.1337C197.317 48.1337 198.001 48.2905 198.619 48.6041C199.246 48.9082 199.745 49.3596 200.115 49.9584C200.486 50.5476 200.671 51.2508 200.671 52.0682L195.155 53.1231C195.449 53.7408 196.034 54.0497 196.908 54.0497ZM196.58 50.0581C196.114 50.0581 195.734 50.2054 195.44 50.5001C195.145 50.7852 194.979 51.1986 194.941 51.7403L198.077 51.1273C197.982 50.8042 197.801 50.5476 197.535 50.3575C197.269 50.1579 196.951 50.0581 196.58 50.0581Z" fill="#333333"/>
<path d="M209.461 55.9884V51.9256L207.48 55.3041H206.325L204.401 51.8686V55.9884H201.963V48.262H204.814L206.967 52.2962L209.333 48.262H211.885L211.899 55.9884H209.461Z" fill="#333333"/>
<path d="M217.404 56.2165C214.848 56.2165 213.57 55.1188 213.57 52.9235V48.262H216.264V50.7139C216.464 50.5808 216.73 50.4715 217.062 50.386C217.404 50.3005 217.794 50.2577 218.231 50.2577C219.182 50.2577 219.928 50.5001 220.469 50.9847C221.011 51.4599 221.282 52.1679 221.282 53.1088C221.282 54.1257 220.93 54.9002 220.227 55.4324C219.533 55.9551 218.592 56.2165 217.404 56.2165ZM221.923 48.262H224.632V55.9884H221.923V48.262ZM217.404 54.3633C217.775 54.3633 218.055 54.254 218.245 54.0354C218.436 53.8168 218.531 53.527 218.531 53.1658C218.531 52.8142 218.436 52.5386 218.245 52.339C218.055 52.1394 217.78 52.0396 217.419 52.0396C217.162 52.0396 216.934 52.0872 216.734 52.1822C216.535 52.2772 216.378 52.4055 216.264 52.5671V53.1658C216.264 53.5365 216.359 53.8311 216.549 54.0497C216.739 54.2587 217.024 54.3633 217.404 54.3633Z" fill="#333333"/>
<path d="M9.3449 42.7144L17.3506 24.2754H20.0364V29.492L14.3549 42.7144H18.5902V40.3385C18.5902 39.76 19.5544 39.7187 20.0364 39.7704V47.053C18.7142 47.053 18.5214 46.6054 18.5902 46.3816V44.3156H13.5802L1.18421 71.9999H0.71936L3.87001 62.4447C3.87001 62.4447 1.08091 61.36 2.01061 59.0358C2.94031 56.7115 8.5185 44.3156 8.5185 44.3156H2.01061V42.7144H9.3449Z" fill="#FF9900"/>
<path d="M30.2115 42.7144L22.2057 24.2754H19.5199V29.492L25.2014 42.7144H20.9661V40.3385C20.9661 39.76 20.002 39.7187 19.5199 39.7704V47.053C20.8422 47.053 21.035 46.6054 20.9661 46.3816V44.3156H25.9762L38.3722 71.9999H38.837L35.6864 62.4447C35.6864 62.4447 38.4755 61.36 37.5458 59.0358C36.6161 56.7115 31.0379 44.3156 31.0379 44.3156H37.5458V42.7144H30.2115Z" fill="#FF9900"/>
<path fill-rule="evenodd" clip-rule="evenodd" d="M19.8298 21.5897C22.8535 21.5897 25.3047 19.1385 25.3047 16.1148C25.3047 13.0911 22.8535 10.6399 19.8298 10.6399C16.8061 10.6399 14.3549 13.0911 14.3549 16.1148C14.3549 19.1385 16.8061 21.5897 19.8298 21.5897ZM19.8298 24.5854C24.508 24.5854 28.3004 20.793 28.3004 16.1148C28.3004 11.4366 24.508 7.64419 19.8298 7.64419C15.1517 7.64419 11.3593 11.4366 11.3593 16.1148C11.3593 20.793 15.1517 24.5854 19.8298 24.5854Z" fill="#333333"/>
<path d="M18.2803 0H21.3793V8.16069H18.2803V0Z" fill="#333333"/>
</svg>
